<?xml version="1.0" encoding="UTF-8" standalone="no"?>
<!DOCTYPE svg PUBLIC "-//W3C//DTD SVG 1.1//EN" "http://www.w3.org/Graphics/SVG/1.1/DTD/svg11.dtd">
<svg xmlns="http://www.w3.org/2000/svg" xmlns:xlink="http://www.w3.org/1999/xlink" version="1.1" width="303.767pt" height="290.421pt" viewBox="0 0 303.767 290.421">
<g enable-background="new">
<path transform="matrix(1,0,0,-1,50.213006,33.179979)" stroke-width=".3985" stroke-linecap="butt" stroke-miterlimit="10" stroke-linejoin="miter" fill="none" stroke="#000000" d="M -39.85107 0 L -39.85107 17.43484 L 39.85107 17.43484 L 39.85107 -17.43484 L 39.85107 -19.92554 C 28.84634 -16.60458 11.00465 -16.60458 -.00005 -19.92554 C -11.00478 -23.24648 -28.84647 -23.24648 -39.85118 -19.92554 Z "/>
<text fill="#000066" xml:space="preserve" transform="matrix(1 0 -0 1 .0000038146974 290.421)" font-size="9.9626" font-family="CMSS10"><tspan y="-259.759" x="41.745 48.390054 53.540719">App</tspan><tspan y="-247.804" x="33.767999 40.20384 44.62723 49.21999 51.60105 56.024446 62.8289">Reviews</tspan></text>
<path transform="matrix(1,0,0,-1,152.922,33.179979)" stroke-width=".3985" stroke-linecap="butt" stroke-miterlimit="10" stroke-linejoin="miter" fill="none" stroke="#000000" d="M -35.79848 20.12479 L -35.79848 -20.12479 "/>
<path transform="matrix(1,0,0,-1,152.922,33.179979)" stroke-width=".3985" stroke-linecap="butt" stroke-miterlimit="10" stroke-linejoin="miter" fill="none" stroke="#000000" d="M 35.79848 20.12479 L 35.79848 -20.12479 "/>
<path transform="matrix(1,0,0,-1,152.922,33.179979)" stroke-width=".3985" stroke-linecap="butt" stroke-miterlimit="10" stroke-linejoin="miter" fill="none" stroke="#000000" d="M -39.85107 -19.92554 L 39.851079 -19.92554 L 39.851079 19.92553 L -39.85107 19.92553 Z "/>
<text fill="#000066" xml:space="preserve" transform="matrix(1 0 -0 1 0 290.42097)" font-size="9.9626" font-family="CMSS10"><tspan y="-261.005" x="117.97 123.91767 128.51044 132.93384 138.0845 144.99855 150.94623 155.53899 159.13549 162.5427 167.3347 171.7581 175.3546 177.73566 182.71695">EventExtraction</tspan><tspan y="-249.04901" x="121.734 125.60945 130.40146 135.55213 144.02034 151.35282 154.76003 159.91069 164.33409 167.7413 170.12236 175.27303 180.25432">(andOrdering)</tspan></text>
<path transform="matrix(1,0,0,-1,253.251,33.179979)" stroke-width=".3985" stroke-linecap="butt" stroke-miterlimit="10" stroke-linejoin="miter" fill="none" stroke="#000000" d="M -39.85107 -13.03812 C -39.85107 -15.24356 -22.00941 -17.03139 0 -17.03139 C 22.00941 -17.03139 39.85107 -15.24356 39.85107 -13.03812 L 39.85107 18.8264 C 39.85107 21.03185 22.00941 22.81967 0 22.81967 C -22.00941 22.81967 -39.85107 21.03185 -39.85107 18.8264 Z M -39.85107 18.8264 C -39.85107 16.62096 -22.00941 14.83313 0 14.83313 C 22.00941 14.83313 39.85107 16.62096 39.85107 18.8264 "/>
<text fill="#000066" xml:space="preserve" transform="matrix(1 0 -0 1 .000015258789 290.421)" font-size="9.9626" font-family="CMSS10"><tspan y="-259.759" x="236.605 243.93747 247.34468 252.49535 256.91874 260.32594 264.74934">Ordered</tspan><tspan y="-247.804" x="239.483 245.43068 250.02344 254.44684 259.5975 263.194">Events</tspan></text>
<path transform="matrix(1,0,0,-1,50.213014,119.461978)" stroke-width=".3985" stroke-linecap="butt" stroke-miterlimit="10" stroke-linejoin="miter" fill="none" stroke="#000000" d="M -39.85107 -13.11719 C -39.85107 -15.29694 -22.00941 -17.06393 0 -17.06393 C 22.00941 -17.06393 39.85107 -15.29694 39.85107 -13.11719 L 39.85107 18.84035 C 39.85107 21.0201 22.00941 22.78711 0 22.78711 C -22.00941 22.78711 -39.85107 21.0201 -39.85107 18.84035 Z M -39.85107 18.84035 C -39.85107 16.6606 -22.00941 14.8936 0 14.8936 C 22.00941 14.8936 39.85107 16.6606 39.85107 18.84035 "/>
<text fill="#000066" xml:space="preserve" transform="matrix(1 0 -0 1 .00001335144 290.42097)" font-size="9.9626" font-family="CMSS10"><tspan y="-173.477" x="17.655 24.300057 28.723452 32.31995 34.70101 39.682313 44.832979 48.150526 54.516626 57.923833 62.905134 68.05579 70.43685 74.860248">Action-Problem</tspan><tspan y="-161.522" x="39.974 46.061147 50.853158 53.23422 56.641427">Pairs</tspan></text>
<path transform="matrix(1,0,0,-1,152.92201,119.461978)" stroke-width=".3985" stroke-linecap="butt" stroke-miterlimit="10" stroke-linejoin="miter" fill="none" stroke="#000000" d="M -35.79848 20.12479 L -35.79848 -20.12479 "/>
<path transform="matrix(1,0,0,-1,152.92201,119.461978)" stroke-width=".3985" stroke-linecap="butt" stroke-miterlimit="10" stroke-linejoin="miter" fill="none" stroke="#000000" d="M 35.79848 20.12479 L 35.79848 -20.12479 "/>
<path transform="matrix(1,0,0,-1,152.92201,119.461978)" stroke-width=".3985" stroke-linecap="butt" stroke-miterlimit="10" stroke-linejoin="miter" fill="none" stroke="#000000" d="M -39.85107 -19.92554 L 39.851079 -19.92554 L 39.851079 19.92553 L -39.85107 19.92553 Z "/>
<text fill="#000066" xml:space="preserve" transform="matrix(1 0 -0 1 .000015258789 290.42097)" font-size="9.9626" font-family="CMSS10"><tspan y="-174.446" x="120.364 127.009059 131.43245 135.02895 137.41 142.3913 147.54196 150.85951 157.22562 160.63283 165.61412 170.76479 173.14585 177.56925">Action-Problem</tspan><tspan y="-162.491" x="123.699 129.78615 134.57816 136.95922 143.68398 149.22318 153.81594 158.9666 162.5631 167.71376 172.13716 175.95284 178.3339">PairSynthesis</tspan></text>
<path transform="matrix(1,0,0,-1,253.251,119.461978)" stroke-width=".3985" stroke-linecap="butt" stroke-miterlimit="10" stroke-linejoin="miter" fill="none" stroke="#000000" d="M 40.15517 11.09079 L 34.1775 17.06873 L 31.32059 19.92554 L -31.32059 19.92554 L -34.1775 17.06873 L -40.15517 11.09079 L -40.15517 -11.09079 L -34.1775 -17.06873 L -31.32059 -19.92554 L 31.32059 -19.92554 L 34.1775 -17.06873 L 40.15517 -11.09079 Z "/>
<text fill="#000066" xml:space="preserve" transform="matrix(1 0 -0 1 0 290.42097)" font-size="9.9626" font-family="CMSS10"><tspan y="-174.446" x="222.395 228.35265 231.75986 236.55187 238.93292 247.40114 253.76725 256.14833 260.94035 264.756 268.5717 270.95277 276.29273 280.71614">TrainClassi&#xfb01;er</tspan><tspan y="-162.491" x="226.781 229.82956 234.5319 241.25667 246.79587 251.38863 256.53929 260.13578 265.28645 269.70985 273.5255 275.9066">forSynthesis</tspan></text>
<path transform="matrix(1,0,0,-1,50.213014,199.76099)" stroke-width=".3985" stroke-linecap="butt" stroke-miterlimit="10" stroke-linejoin="miter" fill="none" stroke="#000000" d="M 42.53519 11.09079 L 36.55753 17.06873 L 33.7006 19.92554 L -33.7006 19.92554 L -36.55753 17.06873 L -42.53519 11.09079 L -42.53519 -11.09079 L -36.55753 -17.06873 L -33.7006 -19.92554 L 33.7006 -19.92554 L 36.55753 -17.06873 L 42.53519 -11.09079 Z "/>
<text fill="#000066" xml:space="preserve" transform="matrix(1 0 -0 1 .00001335144 290.421)" font-size="9.9626" font-family="CMSS10"><tspan y="-93.178" x="20.408 26.365635 29.772845 34.564855 36.945917 45.414129 51.780229 55.187437 60.168737 65.3194 67.700458 72.12385">TrainProblem</tspan><tspan y="-81.223" x="16.977002 19.746605 24.89727 27.945826 32.36922 35.77643 40.19982 45.350488 49.77388 57.51482 66.23209 71.49235 76.64301 81.06641">InferenceModel</tspan></text>
<path transform="matrix(1,0,0,-1,50.213014,260.13499)" stroke-width=".3985" stroke-linecap="butt" stroke-miterlimit="10" stroke-linejoin="miter" fill="none" stroke="#000000" d="M -39.85107 0 L -39.85107 17.43484 L 39.85107 17.43484 L 39.85107 -17.43484 L 39.85107 -19.92554 C 28.84634 -16.60458 11.00465 -16.60458 -.00005 -19.92554 C -11.00478 -23.24648 -28.84647 -23.24648 -39.85118 -19.92554 Z "/>
<text fill="#000066" xml:space="preserve" transform="matrix(1 0 -0 1 .00001335144 290.421)" font-size="9.9626" font-family="CMSS10"><tspan y="-32.805" x="36.376 43.708475 48.85914 53.28253 56.68974 61.282499">Query:</tspan><tspan y="-20.85" x="25.715 32.569269 36.384946 40.80834 47.533094 54.178148 58.60154 62.19804 64.5791 69.5604">UserAction</tspan></text>
<path transform="matrix(1,0,0,-1,152.92201,260.13499)" stroke-width=".3985" stroke-linecap="butt" stroke-miterlimit="10" stroke-linejoin="miter" fill="none" stroke="#000000" d="M -35.79848 20.12479 L -35.79848 -20.12479 "/>
<path transform="matrix(1,0,0,-1,152.92201,260.13499)" stroke-width=".3985" stroke-linecap="butt" stroke-miterlimit="10" stroke-linejoin="miter" fill="none" stroke="#000000" d="M 35.79848 20.12479 L 35.79848 -20.12479 "/>
<path transform="matrix(1,0,0,-1,152.92201,260.13499)" stroke-width=".3985" stroke-linecap="butt" stroke-miterlimit="10" stroke-linejoin="miter" fill="none" stroke="#000000" d="M -39.85107 -19.92554 L 39.851079 -19.92554 L 39.851079 19.92553 L -39.85107 19.92553 Z "/>
<text fill="#000066" xml:space="preserve" transform="matrix(1 0 -0 1 .000015258789 290.421)" font-size="9.9626" font-family="CMSS10"><tspan y="-32.805" x="135.612 141.9781 145.38532 150.36661 155.51728 157.89833 162.32173">Problem</tspan><tspan y="-20.85" x="134.312 137.0816 142.23227 145.28083 149.70423 153.11144 157.53484 162.6855 167.1089">Inference</tspan></text>
<path transform="matrix(1,0,0,-1,253.251,260.13499)" stroke-width=".3985" stroke-linecap="butt" stroke-miterlimit="10" stroke-linejoin="miter" fill="none" stroke="#000000" d="M -39.85107 0 L -39.85107 17.43484 L 39.85107 17.43484 L 39.85107 -17.43484 L 39.85107 -19.92554 C 28.84634 -16.60458 11.00465 -16.60458 -.00005 -19.92554 C -11.00478 -23.24648 -28.84647 -23.24648 -39.85118 -19.92554 Z "/>
<text fill="#000066" xml:space="preserve" transform="matrix(1 0 -0 1 .000015258789 290.421)" font-size="9.9626" font-family="CMSS10"><tspan y="-32.805" x="244.783 251.42806 256.5787">App</tspan><tspan y="-20.85" x="234.032 240.3981 243.80532 248.7866 253.93727 256.31834 260.74174 268.65205">Problems</tspan></text>
<path transform="matrix(1,0,0,-1,150.542,146.87099)" stroke-width=".3985" stroke-linecap="butt" stroke-dasharray="2.98883,2.98883" stroke-miterlimit="10" stroke-linejoin="miter" fill="none" stroke="#b30303" d="M -150.34339 83.60457 L 152.73325 83.60457 L 152.73325 146.67374 L -150.34339 146.67374 Z "/>
<path transform="matrix(1,0,0,-1,150.542,146.87099)" stroke-width=".3985" stroke-linecap="butt" stroke-dasharray="2.98883,2.98883" stroke-miterlimit="10" stroke-linejoin="miter" fill="none" stroke="#b30303" d="M -150.34503 -2.67859 L 153.0275 -2.67859 L 153.0275 60.35801 L -150.34503 60.35801 Z "/>
<path transform="matrix(1,0,0,-1,150.542,146.87099)" stroke-width=".3985" stroke-linecap="butt" stroke-dasharray="2.98883,2.98883" stroke-miterlimit="10" stroke-linejoin="miter" fill="none" stroke="#b30303" d="M -150.34339 -143.35288 L 152.72342 -143.35288 L 152.72342 -22.803406 L -150.34339 -22.803406 Z "/>
<text fill="#000066" xml:space="preserve" transform="matrix(1 0 -0 1 .00000834465 290.421)" font-size="7.9701" font-family="CMSSBX10" font-weight="bold"><tspan y="-282.695" x="2.193 7.309804 11.294854 14.514774 17.479653 21.663956 25.561335 28.781256 30.821602 35.20516">Extraction</tspan></text>
<text fill="#000066" xml:space="preserve" transform="matrix(1 0 -0 1 .0000014305115 290.421)" font-size="7.9701" font-family="CMSSBX10" font-weight="bold"><tspan y="-196.38" x="2.192 7.061731 11.046781 15.518007 18.737929 23.209155 27.281876 30.645258 32.685606">Synthesis</tspan></text>
<text fill="#000066" xml:space="preserve" transform="matrix(1 0 -0 1 .00000834465 290.421)" font-size="7.9701" font-family="CMSSBX10" font-weight="bold"><tspan y="-113.22" x="2.193 4.8311035 9.30233 11.980284 16.053006 19.017884 23.090605 27.56183 31.45921">Inference</tspan></text>
<path transform="matrix(1,0,0,-1,150.542,146.87099)" stroke-width=".3985" stroke-linecap="butt" stroke-miterlimit="10" stroke-linejoin="miter" fill="none" stroke="#000000" d="M -60.27077 113.69366 L -38.66656 113.69215 "/>
<path transform="matrix(1,.00005,.00005,-1,111.87544,33.178819)" d="M .797 0 C -.19925 .19925 -1.19551 .59775 -2.39102 1.29512 C -1.19551 .3985 -1.19551 -.3985 -2.39102 -1.29512 C -1.19551 -.59775 -.19925 -.19925 .797 0 Z "/>
<path transform="matrix(1,.00005,.00005,-1,111.87544,33.178819)" stroke-width=".3985" stroke-linecap="butt" stroke-linejoin="round" fill="none" stroke="#000000" d="M .797 0 C -.19925 .19925 -1.19551 .59775 -2.39102 1.29512 C -1.19551 .3985 -1.19551 -.3985 -2.39102 -1.29512 C -1.19551 -.59775 -.19925 -.19925 .797 0 Z "/>
<path transform="matrix(1,0,0,-1,150.542,146.87099)" stroke-width=".3985" stroke-linecap="butt" stroke-miterlimit="10" stroke-linejoin="miter" fill="none" stroke="#000000" d="M 42.43034 113.69273 L 61.65964 113.69339 "/>
<path transform="matrix(1,-.00002,-.00002,-1,212.20165,33.17762)" d="M .797 0 C -.19925 .19925 -1.19551 .59775 -2.39102 1.29512 C -1.19551 .3985 -1.19551 -.3985 -2.39102 -1.29512 C -1.19551 -.59775 -.19925 -.19925 .797 0 Z "/>
<path transform="matrix(1,-.00002,-.00002,-1,212.20165,33.17762)" stroke-width=".3985" stroke-linecap="butt" stroke-linejoin="round" fill="none" stroke="#000000" d="M .797 0 C -.19925 .19925 -1.19551 .59775 -2.39102 1.29512 C -1.19551 .3985 -1.19551 -.3985 -2.39102 -1.29512 C -1.19551 -.59775 -.19925 -.19925 .797 0 Z "/>
<path transform="matrix(1,0,0,-1,150.542,146.87099)" stroke-width=".3985" stroke-linecap="butt" stroke-miterlimit="10" stroke-linejoin="miter" fill="none" stroke="#000000" d="M 102.71031 96.46147 L 102.71031 71.98128 L 2.38002 71.98128 L 2.38002 48.53 "/>
<path transform="matrix(0,1,1,0,152.92203,98.34099)" d="M .797 0 C -.19925 .19925 -1.19551 .59775 -2.39102 1.29512 C -1.19551 .3985 -1.19551 -.3985 -2.39102 -1.29512 C -1.19551 -.59775 -.19925 -.19925 .797 0 Z "/>
<path transform="matrix(0,1,1,0,152.92203,98.34099)" stroke-width=".3985" stroke-linecap="butt" stroke-linejoin="round" fill="none" stroke="#000000" d="M .797 0 C -.19925 .19925 -1.19551 .59775 -2.39102 1.29512 C -1.19551 .3985 -1.19551 -.3985 -2.39102 -1.29512 C -1.19551 -.59775 -.19925 -.19925 .797 0 Z "/>
<path transform="matrix(1,0,0,-1,150.542,146.87099)" stroke-width=".3985" stroke-linecap="butt" stroke-miterlimit="10" stroke-linejoin="miter" fill="none" stroke="#000000" d="M 62.35422 27.41042 L 43.4266 27.409 "/>
<path transform="matrix(-1,.00006,.00006,1,193.96862,119.461978)" d="M .797 0 C -.19925 .19925 -1.19551 .59775 -2.39102 1.29512 C -1.19551 .3985 -1.19551 -.3985 -2.39102 -1.29512 C -1.19551 -.59775 -.19925 -.19925 .797 0 Z "/>
<path transform="matrix(-1,.00006,.00006,1,193.96862,119.461978)" stroke-width=".3985" stroke-linecap="butt" stroke-linejoin="round" fill="none" stroke="#000000" d="M .797 0 C -.19925 .19925 -1.19551 .59775 -2.39102 1.29512 C -1.19551 .3985 -1.19551 -.3985 -2.39102 -1.29512 C -1.19551 -.59775 -.19925 -.19925 .797 0 Z "/>
<path transform="matrix(1,0,0,-1,150.542,146.87099)" stroke-width=".3985" stroke-linecap="butt" stroke-miterlimit="10" stroke-linejoin="miter" fill="none" stroke="#000000" d="M -37.6703 27.41016 L -59.26746 27.41107 "/>
<path transform="matrix(-1,-.00002,-.00002,1,91.27455,119.45993)" d="M .797 0 C -.19925 .19925 -1.19551 .59775 -2.39102 1.29512 C -1.19551 .3985 -1.19551 -.3985 -2.39102 -1.29512 C -1.19551 -.59775 -.19925 -.19925 .797 0 Z "/>
<path transform="matrix(-1,-.00002,-.00002,1,91.27455,119.45993)" stroke-width=".3985" stroke-linecap="butt" stroke-linejoin="round" fill="none" stroke="#000000" d="M .797 0 C -.19925 .19925 -1.19551 .59775 -2.39102 1.29512 C -1.19551 .3985 -1.19551 -.3985 -2.39102 -1.29512 C -1.19551 -.59775 -.19925 -.19925 .797 0 Z "/>
<path transform="matrix(1,0,0,-1,150.542,146.87099)" stroke-width=".3985" stroke-linecap="butt" stroke-miterlimit="10" stroke-linejoin="miter" fill="none" stroke="#000000" d="M -100.33028 10.14575 L -100.33028 -12.741 L -100.33028 -31.76991 "/>
<path transform="matrix(0,1,1,0,50.21173,178.6409)" d="M .797 0 C -.19925 .19925 -1.19551 .59775 -2.39102 1.29512 C -1.19551 .3985 -1.19551 -.3985 -2.39102 -1.29512 C -1.19551 -.59775 -.19925 -.19925 .797 0 Z "/>
<path transform="matrix(0,1,1,0,50.21173,178.6409)" stroke-width=".3985" stroke-linecap="butt" stroke-linejoin="round" fill="none" stroke="#000000" d="M .797 0 C -.19925 .19925 -1.19551 .59775 -2.39102 1.29512 C -1.19551 .3985 -1.19551 -.3985 -2.39102 -1.29512 C -1.19551 -.59775 -.19925 -.19925 .797 0 Z "/>
<path transform="matrix(1,0,0,-1,150.542,146.87099)" stroke-width=".3985" stroke-linecap="butt" stroke-miterlimit="10" stroke-linejoin="miter" fill="none" stroke="#000000" d="M -57.59586 -52.89095 L 2.38002 -52.89095 L 2.38002 -92.14426 "/>
<path transform="matrix(0,1,1,0,152.92203,239.01525)" d="M .797 0 C -.19925 .19925 -1.19551 .59775 -2.39102 1.29512 C -1.19551 .3985 -1.19551 -.3985 -2.39102 -1.29512 C -1.19551 -.59775 -.19925 -.19925 .797 0 Z "/>
<path transform="matrix(0,1,1,0,152.92203,239.01525)" stroke-width=".3985" stroke-linecap="butt" stroke-linejoin="round" fill="none" stroke="#000000" d="M .797 0 C -.19925 .19925 -1.19551 .59775 -2.39102 1.29512 C -1.19551 .3985 -1.19551 -.3985 -2.39102 -1.29512 C -1.19551 -.59775 -.19925 -.19925 .797 0 Z "/>
<path transform="matrix(1,0,0,-1,150.542,146.87099)" stroke-width=".3985" stroke-linecap="butt" stroke-miterlimit="10" stroke-linejoin="miter" fill="none" stroke="#000000" d="M -60.26945 -113.26378 L -38.66656 -113.26527 "/>
<path transform="matrix(1,.00005,.00005,-1,111.87544,260.13624)" d="M .797 0 C -.19925 .19925 -1.19551 .59775 -2.39102 1.29512 C -1.19551 .3985 -1.19551 -.3985 -2.39102 -1.29512 C -1.19551 -.59775 -.19925 -.19925 .797 0 Z "/>
<path transform="matrix(1,.00005,.00005,-1,111.87544,260.13624)" stroke-width=".3985" stroke-linecap="butt" stroke-linejoin="round" fill="none" stroke="#000000" d="M .797 0 C -.19925 .19925 -1.19551 .59775 -2.39102 1.29512 C -1.19551 .3985 -1.19551 -.3985 -2.39102 -1.29512 C -1.19551 -.59775 -.19925 -.19925 .797 0 Z "/>
<path transform="matrix(1,0,0,-1,150.542,146.87099)" stroke-width=".3985" stroke-linecap="butt" stroke-miterlimit="10" stroke-linejoin="miter" fill="none" stroke="#000000" d="M 42.43034 -113.26471 L 61.66098 -113.26405 "/>
<path transform="matrix(1,-.00002,-.00002,-1,212.20299,260.13508)" d="M .797 0 C -.19925 .19925 -1.19551 .59775 -2.39102 1.29512 C -1.19551 .3985 -1.19551 -.3985 -2.39102 -1.29512 C -1.19551 -.59775 -.19925 -.19925 .797 0 Z "/>
<path transform="matrix(1,-.00002,-.00002,-1,212.20299,260.13508)" stroke-width=".3985" stroke-linecap="butt" stroke-linejoin="round" fill="none" stroke="#000000" d="M .797 0 C -.19925 .19925 -1.19551 .59775 -2.39102 1.29512 C -1.19551 .3985 -1.19551 -.3985 -2.39102 -1.29512 C -1.19551 -.59775 -.19925 -.19925 .797 0 Z "/>
</g>
</svg>
