<svg xmlns="http://www.w3.org/2000/svg" xmlns:xlink="http://www.w3.org/1999/xlink" version="1.1" width="279.331pt" height="398.349pt" viewBox="0 0 279.331 398.349">
<path transform="matrix(1,0,0,-1,45.233,33.78)" stroke-width=".3985" stroke-linecap="butt" stroke-miterlimit="10" stroke-linejoin="miter" fill="none" stroke="#000000" d="M-34.86969 0V17.43484H34.86969V-17.43484-19.92554C25.24055-16.60458 9.62906-16.60458-.00005-19.92554-9.62918-23.24648-25.24068-23.24648-34.8698-19.92554Z"/>
<text fill="#000066" xml:space="preserve" transform="matrix(1 0 -0 1 .0000019073487 398.349)" font-size="9.9626" font-family="CMSS10"><tspan y="-368.056" x="30.814 37.459054 40.86626 45.289655 50.081666 54.50506">Breach</tspan><tspan y="-356.101" x="29.327 35.76284 40.186235 45.615854 50.3182 53.725408 57.321908">Reports</tspan></text>
<path transform="matrix(1,0,0,-1,138.13101,33.78)" stroke-width=".3985" stroke-linecap="butt" stroke-miterlimit="10" stroke-linejoin="miter" fill="none" stroke="#000000" d="M-34.86969-11.67259C-34.86969-14.3014-19.25824-16.43243 0-16.43243 19.25824-16.43243 34.86969-14.3014 34.86969-11.67259V18.65877C34.86969 21.28758 19.25824 23.41861 0 23.41861-19.25824 23.41861-34.86969 21.28758-34.86969 18.65877ZM-34.86969 18.65877C-34.86969 16.02995-19.25824 13.89891 0 13.89891 19.25824 13.89891 34.86969 16.02995 34.86969 18.65877"/>
<text fill="#000066" xml:space="preserve" transform="matrix(1 0 -0 1 .0000076293949 398.349)" font-size="9.9626" font-family="CMSS10"><tspan y="-361.11" x="117.652 123.19121 127.6146 132.76526 136.36176 140.78516 145.93582 150.35923 154.78263">Sentences</tspan></text>
<path transform="matrix(1,0,0,-1,232.565,33.78)" stroke-width=".3985" stroke-linecap="butt" stroke-miterlimit="10" stroke-linejoin="miter" fill="none" stroke="#000000" d="M-30.8171 20.12479V-20.12479"/>
<path transform="matrix(1,0,0,-1,232.565,33.78)" stroke-width=".3985" stroke-linecap="butt" stroke-miterlimit="10" stroke-linejoin="miter" fill="none" stroke="#000000" d="M30.8171 20.12479V-20.12479"/>
<path transform="matrix(1,0,0,-1,232.565,33.78)" stroke-width=".3985" stroke-linecap="butt" stroke-miterlimit="10" stroke-linejoin="miter" fill="none" stroke="#000000" d="M-34.86969-19.92554H34.86969V19.92553H-34.86969Z"/>
<text fill="#000066" xml:space="preserve" transform="matrix(1 0 -0 1 .000015258789 398.349)" font-size="9.9626" font-family="CMSS10"><tspan y="-367.088" x="213.996 219.5352 223.9586 229.10927 232.70577 237.12917 242.27983 246.70323">Sentence</tspan><tspan y="-355.13203" x="205.45801 211.82411 214.20517 218.99718 222.81285 226.62853 229.00959 234.34954 238.77294 243.56494 247.16144 249.5425 254.52379">Classi&#xfb01;cation</tspan></text>
<path transform="matrix(1,0,0,-1,45.233,105.388)" stroke-width=".3985" stroke-linecap="butt" stroke-miterlimit="10" stroke-linejoin="miter" fill="none" stroke="#000000" d="M-34.86969-10.65341C-34.86969-13.61084-19.25824-16.00826 0-16.00826 19.25824-16.00826 34.86969-13.61084 34.86969-10.65341V18.48798C34.86969 21.44539 19.25824 23.8428 0 23.8428-19.25824 23.8428-34.86969 21.44539-34.86969 18.48798ZM-34.86969 18.48798C-34.86969 15.53055-19.25824 13.13313 0 13.13313 19.25824 13.13313 34.86969 15.53055 34.86969 18.48798"/>
<text fill="#000066" xml:space="preserve" transform="matrix(1 0 -0 1 .0000019073487 398.349)" font-size="9.9626" font-family="CMSS10"><tspan y="-295.479" x="21.779 28.971997 33.39539 37.211069 41.63446 45.041669 47.42273 52.573396 56.169897 58.550958 63.532258">Description</tspan><tspan y="-283.52403" x="24.754 30.293206 34.7166 39.867265 43.463766 47.887159 53.037824 57.461217 61.88461">Sentences</tspan></text>
<path transform="matrix(1,0,0,-1,138.13101,105.388)" stroke-width=".3985" stroke-linecap="butt" stroke-miterlimit="10" stroke-linejoin="miter" fill="none" stroke="#000000" d="M-37.706-9.66347C-37.706-13.82834-20.82469-17.20454 0-17.20454 20.82469-17.20454 37.706-13.82834 37.706-9.66347V20.49783C37.706 24.6627 20.82469 28.03891 0 28.03891-20.82469 28.03891-37.706 24.6627-37.706 20.49783ZM-37.706 20.49783C-37.706 16.33296-20.82469 12.95676 0 12.95676 20.82469 12.95676 37.706 16.33296 37.706 20.49783"/>
<text fill="#000066" xml:space="preserve" transform="matrix(1 0 -0 1 .000015258789 398.349)" font-size="9.9626" font-family="CMSS10"><tspan y="-295.479" x="103.746 110.11211 114.81445 118.221668 121.628879 126.05227 130.47566 134.07216 136.45322 141.04598 148.79689 154.74457 159.33733 163.76073 168.91139">CorrectiveEvent</tspan><tspan y="-283.52403" x="117.652 123.19121 127.6146 132.76526 136.36176 140.78516 145.93582 150.35923 154.78263">Sentences</tspan></text>
<path transform="matrix(1,0,0,-1,232.565,105.388)" stroke-width=".3985" stroke-linecap="butt" stroke-miterlimit="10" stroke-linejoin="miter" fill="none" stroke="#000000" d="M36.40527 11.09079 30.42761 17.06873 27.5707 19.92554H-27.5707L-30.42761 17.06873-36.40527 11.09079V-11.09079L-30.42761-17.06873-27.5707-19.92554H27.5707L30.42761-17.06873 36.40527-11.09079Z"/>
<text fill="#000066" xml:space="preserve" transform="matrix(1 0 -0 1 .000015258789 398.349)" font-size="9.9626" font-family="CMSS10"><tspan y="-295.479" x="208.24 214.19765 217.60486 222.39687 224.77793 229.91863 232.29969 237.45035 245.75916 248.80771 253.51006">Trainingfor</tspan><tspan y="-283.52403" x="205.45801 211.82411 214.20517 218.99718 222.81285 226.62853 229.00959 234.34954 238.77294 243.56494 247.16144 249.5425 254.52379">Classi&#xfb01;cation</tspan></text>
<path transform="matrix(1,0,0,-1,45.23201,175.724)" stroke-width=".3985" stroke-linecap="butt" stroke-miterlimit="10" stroke-linejoin="miter" fill="none" stroke="#000000" d="M-30.8171 20.12479V-20.12479"/>
<path transform="matrix(1,0,0,-1,45.23201,175.724)" stroke-width=".3985" stroke-linecap="butt" stroke-miterlimit="10" stroke-linejoin="miter" fill="none" stroke="#000000" d="M30.8171 20.12479V-20.12479"/>
<path transform="matrix(1,0,0,-1,45.23201,175.724)" stroke-width=".3985" stroke-linecap="butt" stroke-miterlimit="10" stroke-linejoin="miter" fill="none" stroke="#000000" d="M-34.86969-19.92554H34.86969V19.92553H-34.86969Z"/>
<text fill="#000066" xml:space="preserve" transform="matrix(1 0 -0 1 .000009536743 398.349)" font-size="9.9626" font-family="CMSS10"><tspan y="-225.143" x="31.257 37.6231 42.773767 46.180974 50.972986 54.788663">Phrase</tspan><tspan y="-213.188" x="23.799 29.746672 34.33943 37.935934 41.34314 46.13515 50.558546 54.155046 56.536108 61.517408">Extraction</tspan></text>
<path transform="matrix(1,0,0,-1,138.13,175.724)" stroke-width=".3985" stroke-linecap="butt" stroke-miterlimit="10" stroke-linejoin="miter" fill="none" stroke="#000000" d="M-30.8171 20.12479V-20.12479"/>
<path transform="matrix(1,0,0,-1,138.13,175.724)" stroke-width=".3985" stroke-linecap="butt" stroke-miterlimit="10" stroke-linejoin="miter" fill="none" stroke="#000000" d="M30.8171 20.12479V-20.12479"/>
<path transform="matrix(1,0,0,-1,138.13,175.724)" stroke-width=".3985" stroke-linecap="butt" stroke-miterlimit="10" stroke-linejoin="miter" fill="none" stroke="#000000" d="M-34.86969-19.92554H34.86969V19.92553H-34.86969Z"/>
<text fill="#000066" xml:space="preserve" transform="matrix(1 0 -0 1 -.0009918213 398.349)" font-size="9.9626" font-family="CMSS10"><tspan y="-225.143" x="124.543 131.18805 135.61145 139.20795 141.589 146.5703">Action</tspan><tspan y="-213.188" x="116.697 122.64467 127.23743 130.83393 134.24114 139.03314 143.45655 147.05304 149.4341 154.41539">Extraction</tspan></text>
<path transform="matrix(1,0,0,-1,45.231996,239.936)" stroke-width=".3985" stroke-linecap="butt" stroke-miterlimit="10" stroke-linejoin="miter" fill="none" stroke="#000000" d="M-34.86969-10.84303C-34.86969-13.73932-19.25824-16.08717 0-16.08717 19.25824-16.08717 34.86969-13.73932 34.86969-10.84303V18.51974C34.86969 21.41602 19.25824 23.76387 0 23.76387-19.25824 23.76387-34.86969 21.41602-34.86969 18.51974ZM-34.86969 18.51974C-34.86969 15.62346-19.25824 13.2756 0 13.2756 19.25824 13.2756 34.86969 15.62346 34.86969 18.51974"/>
<text fill="#000066" xml:space="preserve" transform="matrix(1 0 -0 1 -.0010051727 398.349)" font-size="9.9626" font-family="CMSS10"><tspan y="-160.931" x="22.332 29.524998 33.94839 37.76407 42.18746 45.59467 47.97573 53.126398 56.722898 59.10396 63.696718">Descriptive</tspan><tspan y="-148.976" x="29.348 35.7141 40.864767 44.271974 49.063985 52.87966 57.303056">Phrases</tspan></text>
<path transform="matrix(1,0,0,-1,138.13,239.936)" stroke-width=".3985" stroke-linecap="butt" stroke-miterlimit="10" stroke-linejoin="miter" fill="none" stroke="#000000" d="M-34.86969-13.37912C-34.86969-15.45772-19.25824-17.1427 0-17.1427 19.25824-17.1427 34.86969-15.45772 34.86969-13.37912V18.94476C34.86969 21.02336 19.25824 22.70834 0 22.70834-19.25824 22.70834-34.86969 21.02336-34.86969 18.94476ZM-34.86969 18.94476C-34.86969 16.86617-19.25824 15.18117 0 15.18117 19.25824 15.18117 34.86969 16.86617 34.86969 18.94476"/>
<text fill="#000066" xml:space="preserve" transform="matrix(1 0 -0 1 -.0009994507 398.349)" font-size="9.9626" font-family="CMSS10"><tspan y="-160.931" x="125.297 132.15126 135.96694 140.39034 143.43889 148.58956">Useful</tspan><tspan y="-148.976" x="122.633998 129.27906 133.70246 137.29895 139.68001 144.6613 149.81197">Actions</tspan></text>
<path transform="matrix(1,0,0,-1,138.13,307.49)" stroke-width=".3985" stroke-linecap="butt" stroke-miterlimit="10" stroke-linejoin="miter" fill="none" stroke="#000000" d="M-30.8171 20.12479V-20.12479"/>
<path transform="matrix(1,0,0,-1,138.13,307.49)" stroke-width=".3985" stroke-linecap="butt" stroke-miterlimit="10" stroke-linejoin="miter" fill="none" stroke="#000000" d="M30.8171 20.12479V-20.12479"/>
<path transform="matrix(1,0,0,-1,138.13,307.49)" stroke-width=".3985" stroke-linecap="butt" stroke-miterlimit="10" stroke-linejoin="miter" fill="none" stroke="#000000" d="M-34.86969-19.92554H34.86969V19.92553H-34.86969Z"/>
<text fill="#000066" xml:space="preserve" transform="matrix(1 0 -0 1 -.0009994507 398.349)" font-size="9.9626" font-family="CMSS10"><tspan y="-87.4" x="114.511 121.15606 124.97173 128.78742 134.04766 138.47106 140.85211 145.64412 149.24062 151.62168 156.60297">Association</tspan></text>
<path transform="matrix(1,0,0,-1,45.231004,368.063)" stroke-width=".3985" stroke-linecap="butt" stroke-miterlimit="10" stroke-linejoin="miter" fill="none" stroke="#000000" d="M-34.86969 0V17.43484H34.86969V-17.43484-19.92554C25.24055-16.60458 9.62906-16.60458-.00005-19.92554-9.62918-23.24648-25.24068-23.24648-34.8698-19.92554Z"/>
<text fill="#000066" xml:space="preserve" transform="matrix(1 0 -0 1 -.0009975433 398.34898)" font-size="9.9626" font-family="CMSS10"><tspan y="-33.773" x="31.395 38.727476 43.87814 48.301534 51.70874 56.3015">Query:</tspan><tspan y="-21.817999" x="19.869 27.061997 31.485392 35.301069 39.72446 43.131669 45.51273 50.663396 54.259897 56.640958 61.622259 66.77292">Descriptions</tspan></text>
<path transform="matrix(1,0,0,-1,138.13,368.063)" stroke-width=".3985" stroke-linecap="butt" stroke-miterlimit="10" stroke-linejoin="miter" fill="none" stroke="#000000" d="M-30.8171 20.12479V-20.12479"/>
<path transform="matrix(1,0,0,-1,138.13,368.063)" stroke-width=".3985" stroke-linecap="butt" stroke-miterlimit="10" stroke-linejoin="miter" fill="none" stroke="#000000" d="M30.8171 20.12479V-20.12479"/>
<path transform="matrix(1,0,0,-1,138.13,368.063)" stroke-width=".3985" stroke-linecap="butt" stroke-miterlimit="10" stroke-linejoin="miter" fill="none" stroke="#000000" d="M-34.86969-19.92554H34.86969V19.92553H-34.86969Z"/>
<text fill="#000066" xml:space="preserve" transform="matrix(1 0 -0 1 -.0009994507 398.34898)" font-size="9.9626" font-family="CMSS10"><tspan y="-33.773" x="115.203 120.74221 125.1656 129.67867 133.08588 137.50928 145.98746 150.7695 155.92017">Searchand</tspan><tspan y="-21.817999" x="121.257 127.69284 132.48485 137.63552 142.50724 144.88829 150.03896">Ranking</tspan></text>
<path transform="matrix(1,0,0,-1,232.564,368.063)" stroke-width=".3985" stroke-linecap="butt" stroke-miterlimit="10" stroke-linejoin="miter" fill="none" stroke="#000000" d="M-34.86969 0V17.43484H34.86969V-17.43484-19.92554C25.24055-16.60458 9.62906-16.60458-.00005-19.92554-9.62918-23.24648-25.24068-23.24648-34.8698-19.92554Z"/>
<text fill="#000066" xml:space="preserve" transform="matrix(1 0 -0 1 -.0010070801 398.349)" font-size="9.9626" font-family="CMSS10"><tspan y="-32.805" x="211.533 217.0722 222.22287 227.20417 232.18546 236.60886 240.42453 244.02103 248.44443">Suggested</tspan><tspan y="-20.85" x="217.06801 223.71306 228.13646 231.73296 234.11402 239.0953 244.24597">Actions</tspan></text>
<path transform="matrix(1,0,0,-1,139.667,200.83499)" stroke-width=".3985" stroke-linecap="butt" stroke-dasharray="2.98883,2.98883" stroke-miterlimit="10" stroke-linejoin="miter" fill="none" stroke="#b30303" d="M-139.46913 65.36055H139.46706V200.63808H-139.46913Z"/>
<path transform="matrix(1,0,0,-1,139.667,200.83499)" stroke-width=".3985" stroke-linecap="butt" stroke-dasharray="2.98883,2.98883" stroke-miterlimit="10" stroke-linejoin="miter" fill="none" stroke="#b30303" d="M-139.46883-66.40648H137.93148V55.198526H-139.46883Z"/>
<path transform="matrix(1,0,0,-1,139.667,200.83499)" stroke-width=".3985" stroke-linecap="butt" stroke-dasharray="2.98883,2.98883" stroke-miterlimit="10" stroke-linejoin="miter" fill="none" stroke="#b30303" d="M-139.46697-197.31723H137.93148V-76.5685H-139.46697Z"/>
<text fill="#000066" xml:space="preserve" transform="matrix(1 0 -0 1 .0000014305115 398.349)" font-size="7.9701" font-family="CMSSBX10" font-weight="bold"><tspan y="-390.622" x="2.192 4.830103 9.301329 13.37405 17.845276 21.065197 23.105544 27.776022 31.6734 35.857706 39.077627 41.11797 45.501527">Identi&#xfb01;cation</tspan></text>
<text fill="#000066" xml:space="preserve" transform="matrix(1 0 -0 1 .0000014305115 398.349)" font-size="7.9701" font-family="CMSSBX10" font-weight="bold"><tspan y="-245.184" x="2.192 7.308804 11.293854 14.513774 17.478652 21.662955 25.560334 28.780255 30.8206 35.204156">Extraction</tspan></text>
<text fill="#000066" xml:space="preserve" transform="matrix(1 0 -0 1 .00000023841859 398.349)" font-size="7.9701" font-family="CMSSBX10" font-weight="bold"><tspan y="-113.419" x="2.194 8.036083 11.399466 14.762848 19.393475 23.290854 25.323229 29.507533 32.72745 34.767797 39.151353">Association</tspan></text>
<path transform="matrix(1,0,0,-1,139.667,200.83499)" stroke-width=".3985" stroke-linecap="butt" stroke-miterlimit="10" stroke-linejoin="miter" fill="none" stroke="#000000" d="M-59.35803 167.05951-37.60269 167.05812"/>
<path transform="matrix(.99998,.00005,.00005,-.99998,102.064319,33.776857)" d="M.797 0C-.19925 .19925-1.19551 .59775-2.39102 1.29512-1.19551 .3985-1.19551-.3985-2.39102-1.29512-1.19551-.59775-.19925-.19925 .797 0Z"/>
<path transform="matrix(.99998,.00005,.00005,-.99998,102.064319,33.776857)" stroke-width=".3985" stroke-linecap="butt" stroke-linejoin="round" fill="none" stroke="#000000" d="M.797 0C-.19925 .19925-1.19551 .59775-2.39102 1.29512-1.19551 .3985-1.19551-.3985-2.39102-1.29512-1.19551-.59775-.19925-.19925 .797 0Z"/>
<path transform="matrix(1,0,0,-1,139.667,200.83499)" stroke-width=".3985" stroke-linecap="butt" stroke-miterlimit="10" stroke-linejoin="miter" fill="none" stroke="#000000" d="M33.54097 167.0582 56.83458 167.05754"/>
<path transform="matrix(1,0,0,-1,196.50159,33.77745)" d="M.797 0C-.19925 .19925-1.19551 .59775-2.39102 1.29512-1.19551 .3985-1.19551-.3985-2.39102-1.29512-1.19551-.59775-.19925-.19925 .797 0Z"/>
<path transform="matrix(1,0,0,-1,196.50159,33.77745)" stroke-width=".3985" stroke-linecap="butt" stroke-linejoin="round" fill="none" stroke="#000000" d="M.797 0C-.19925 .19925-1.19551 .59775-2.39102 1.29512-1.19551 .3985-1.19551-.3985-2.39102-1.29512-1.19551-.59775-.19925-.19925 .797 0Z"/>
<path transform="matrix(1,0,0,-1,139.667,200.83499)" stroke-width=".3985" stroke-linecap="butt" stroke-miterlimit="10" stroke-linejoin="miter" fill="none" stroke="#000000" d="M92.90337 115.5784 92.89986 145.93651"/>
<path transform="matrix(-.00009,-.99998,-.99998,.00009,232.56688,54.898485)" d="M.797 0C-.19925 .19925-1.19551 .59775-2.39102 1.29512-1.19551 .3985-1.19551-.3985-2.39102-1.29512-1.19551-.59775-.19925-.19925 .797 0Z"/>
<path transform="matrix(-.00009,-.99998,-.99998,.00009,232.56688,54.898485)" stroke-width=".3985" stroke-linecap="butt" stroke-linejoin="round" fill="none" stroke="#000000" d="M.797 0C-.19925 .19925-1.19551 .59775-2.39102 1.29512-1.19551 .3985-1.19551-.3985-2.39102-1.29512-1.19551-.59775-.19925-.19925 .797 0Z"/>
<path transform="matrix(1,0,0,-1,139.667,200.83499)" stroke-width=".3985" stroke-linecap="butt" stroke-miterlimit="10" stroke-linejoin="miter" fill="none" stroke="#000000" d="M83.45567 147.28206 83.45564 134.9231-94.43552 134.45674-94.43579 120.48631"/>
<path transform="matrix(-.00002,.99998,.99998,.00002,45.231225,80.34868)" d="M.797 0C-.19925 .19925-1.19551 .59775-2.39102 1.29512-1.19551 .3985-1.19551-.3985-2.39102-1.29512-1.19551-.59775-.19925-.19925 .797 0Z"/>
<path transform="matrix(-.00002,.99998,.99998,.00002,45.231225,80.34868)" stroke-width=".3985" stroke-linecap="butt" stroke-linejoin="round" fill="none" stroke="#000000" d="M.797 0C-.19925 .19925-1.19551 .59775-2.39102 1.29512-1.19551 .3985-1.19551-.3985-2.39102-1.29512-1.19551-.59775-.19925-.19925 .797 0Z"/>
<path transform="matrix(1,0,0,-1,139.667,200.83499)" stroke-width=".3985" stroke-linecap="butt" stroke-miterlimit="10" stroke-linejoin="miter" fill="none" stroke="#000000" d="M-1.5358 137.056-1.5361 124.68239"/>
<path transform="matrix(-.00002,.99998,.99998,.00002,138.13092,76.1526)" d="M.797 0C-.19925 .19925-1.19551 .59775-2.39102 1.29512-1.19551 .3985-1.19551-.3985-2.39102-1.29512-1.19551-.59775-.19925-.19925 .797 0Z"/>
<path transform="matrix(-.00002,.99998,.99998,.00002,138.13092,76.1526)" stroke-width=".3985" stroke-linecap="butt" stroke-linejoin="round" fill="none" stroke="#000000" d="M.797 0C-.19925 .19925-1.19551 .59775-2.39102 1.29512-1.19551 .3985-1.19551-.3985-2.39102-1.29512-1.19551-.59775-.19925-.19925 .797 0Z"/>
<path transform="matrix(1,0,0,-1,139.667,200.83499)" stroke-width=".3985" stroke-linecap="butt" stroke-miterlimit="10" stroke-linejoin="miter" fill="none" stroke="#000000" d="M-94.43526 79.24059V46.23201"/>
<path transform="matrix(0,1,1,0,45.23175,154.60298)" d="M.797 0C-.19925 .19925-1.19551 .59775-2.39102 1.29512-1.19551 .3985-1.19551-.3985-2.39102-1.29512-1.19551-.59775-.19925-.19925 .797 0Z"/>
<path transform="matrix(0,1,1,0,45.23175,154.60298)" stroke-width=".3985" stroke-linecap="butt" stroke-linejoin="round" fill="none" stroke="#000000" d="M.797 0C-.19925 .19925-1.19551 .59775-2.39102 1.29512-1.19551 .3985-1.19551-.3985-2.39102-1.29512-1.19551-.59775-.19925-.19925 .797 0Z"/>
<path transform="matrix(1,0,0,-1,139.667,200.83499)" stroke-width=".3985" stroke-linecap="butt" stroke-miterlimit="10" stroke-linejoin="miter" fill="none" stroke="#000000" d="M-1.53552 78.0443V46.23201"/>
<path transform="matrix(0,1,1,0,138.13149,154.60298)" d="M.797 0C-.19925 .19925-1.19551 .59775-2.39102 1.29512-1.19551 .3985-1.19551-.3985-2.39102-1.29512-1.19551-.59775-.19925-.19925 .797 0Z"/>
<path transform="matrix(0,1,1,0,138.13149,154.60298)" stroke-width=".3985" stroke-linecap="butt" stroke-linejoin="round" fill="none" stroke="#000000" d="M.797 0C-.19925 .19925-1.19551 .59775-2.39102 1.29512-1.19551 .3985-1.19551-.3985-2.39102-1.29512-1.19551-.59775-.19925-.19925 .797 0Z"/>
<path transform="matrix(1,0,0,-1,139.667,200.83499)" stroke-width=".3985" stroke-linecap="butt" stroke-miterlimit="10" stroke-linejoin="miter" fill="none" stroke="#000000" d="M-94.43526 4.98616-94.43579-14.14246"/>
<path transform="matrix(-.00002,.99998,.99998,.00002,45.231225,214.97745)" d="M.797 0C-.19925 .19925-1.19551 .59775-2.39102 1.29512-1.19551 .3985-1.19551-.3985-2.39102-1.29512-1.19551-.59775-.19925-.19925 .797 0Z"/>
<path transform="matrix(-.00002,.99998,.99998,.00002,45.231225,214.97745)" stroke-width=".3985" stroke-linecap="butt" stroke-linejoin="round" fill="none" stroke="#000000" d="M.797 0C-.19925 .19925-1.19551 .59775-2.39102 1.29512-1.19551 .3985-1.19551-.3985-2.39102-1.29512-1.19551-.59775-.19925-.19925 .797 0Z"/>
<path transform="matrix(1,0,0,-1,139.667,200.83499)" stroke-width=".3985" stroke-linecap="butt" stroke-miterlimit="10" stroke-linejoin="miter" fill="none" stroke="#000000" d="M-1.53552 4.98616-1.53606-15.19795"/>
<path transform="matrix(-.00002,.99998,.99998,.00002,138.13097,216.03295)" d="M.797 0C-.19925 .19925-1.19551 .59775-2.39102 1.29512-1.19551 .3985-1.19551-.3985-2.39102-1.29512-1.19551-.59775-.19925-.19925 .797 0Z"/>
<path transform="matrix(-.00002,.99998,.99998,.00002,138.13097,216.03295)" stroke-width=".3985" stroke-linecap="butt" stroke-linejoin="round" fill="none" stroke="#000000" d="M.797 0C-.19925 .19925-1.19551 .59775-2.39102 1.29512-1.19551 .3985-1.19551-.3985-2.39102-1.29512-1.19551-.59775-.19925-.19925 .797 0Z"/>
<path transform="matrix(1,0,0,-1,139.667,200.83499)" stroke-width=".3985" stroke-linecap="butt" stroke-miterlimit="10" stroke-linejoin="miter" fill="none" stroke="#000000" d="M-1.53552-56.44371V-85.535"/>
<path transform="matrix(0,1,1,0,138.13149,286.37)" d="M.797 0C-.19925 .19925-1.19551 .59775-2.39102 1.29512-1.19551 .3985-1.19551-.3985-2.39102-1.29512-1.19551-.59775-.19925-.19925 .797 0Z"/>
<path transform="matrix(0,1,1,0,138.13149,286.37)" stroke-width=".3985" stroke-linecap="butt" stroke-linejoin="round" fill="none" stroke="#000000" d="M.797 0C-.19925 .19925-1.19551 .59775-2.39102 1.29512-1.19551 .3985-1.19551-.3985-2.39102-1.29512-1.19551-.59775-.19925-.19925 .797 0Z"/>
<path transform="matrix(1,0,0,-1,139.667,200.83499)" stroke-width=".3985" stroke-linecap="butt" stroke-miterlimit="10" stroke-linejoin="miter" fill="none" stroke="#000000" d="M-94.43526-55.38817V-71.48747H-1.5355"/>
<path transform="matrix(1,0,0,-1,139.667,200.83499)" stroke-width=".3985" stroke-linecap="butt" stroke-miterlimit="10" stroke-linejoin="miter" fill="none" stroke="#000000" d="M-1.53552-126.78084V-146.10863"/>
<path transform="matrix(0,1,1,0,138.13149,346.9436)" d="M.797 0C-.19925 .19925-1.19551 .59775-2.39102 1.29512-1.19551 .3985-1.19551-.3985-2.39102-1.29512-1.19551-.59775-.19925-.19925 .797 0Z"/>
<path transform="matrix(0,1,1,0,138.13149,346.9436)" stroke-width=".3985" stroke-linecap="butt" stroke-linejoin="round" fill="none" stroke="#000000" d="M.797 0C-.19925 .19925-1.19551 .59775-2.39102 1.29512-1.19551 .3985-1.19551-.3985-2.39102-1.29512-1.19551-.59775-.19925-.19925 .797 0Z"/>
<path transform="matrix(1,0,0,-1,139.667,200.83499)" stroke-width=".3985" stroke-linecap="butt" stroke-miterlimit="10" stroke-linejoin="miter" fill="none" stroke="#000000" d="M-59.35368-167.22788-37.60072-167.22962"/>
<path transform="matrix(.99998,.00008,.00008,-.99998,102.066287,368.06459)" d="M.797 0C-.19925 .19925-1.19551 .59775-2.39102 1.29512-1.19551 .3985-1.19551-.3985-2.39102-1.29512-1.19551-.59775-.19925-.19925 .797 0Z"/>
<path transform="matrix(.99998,.00008,.00008,-.99998,102.066287,368.06459)" stroke-width=".3985" stroke-linecap="butt" stroke-linejoin="round" fill="none" stroke="#000000" d="M.797 0C-.19925 .19925-1.19551 .59775-2.39102 1.29512-1.19551 .3985-1.19551-.3985-2.39102-1.29512-1.19551-.59775-.19925-.19925 .797 0Z"/>
<path transform="matrix(1,0,0,-1,139.667,200.83499)" stroke-width=".3985" stroke-linecap="butt" stroke-miterlimit="10" stroke-linejoin="miter" fill="none" stroke="#000000" d="M33.5334-167.2286 56.83147-167.22762"/>
<path transform="matrix(.99998,-.00005,-.00005,-.99998,196.49848,368.06263)" d="M.797 0C-.19925 .19925-1.19551 .59775-2.39102 1.29512-1.19551 .3985-1.19551-.3985-2.39102-1.29512-1.19551-.59775-.19925-.19925 .797 0Z"/>
<path transform="matrix(.99998,-.00005,-.00005,-.99998,196.49848,368.06263)" stroke-width=".3985" stroke-linecap="butt" stroke-linejoin="round" fill="none" stroke="#000000" d="M.797 0C-.19925 .19925-1.19551 .59775-2.39102 1.29512-1.19551 .3985-1.19551-.3985-2.39102-1.29512-1.19551-.59775-.19925-.19925 .797 0Z"/>
</svg>
